<svg width="100" height="100" viewBox="0 0 100 100" fill="none" xmlns="http://www.w3.org/2000/svg">
<circle cx="50" cy="50" r="48" fill="#00AC9B" stroke="white" stroke-width="4"/>
<path d="M62.8036 71.9626L50.3002 53.7963L48.5197 51.2104L34.011 30.1305H40.252L51.9853 47.1783L53.7657 49.7643L69.0445 71.9626H62.8036ZM71.6246 70.1881L55.8765 47.3093L54.0961 44.7217L42.8309 28.3557L41.8972 26.9994H28.0547L31.4306 31.905L46.409 53.6681L48.1895 56.2529L60.2243 73.739L61.1581 75.0938H75.0007L71.6246 70.1881Z" fill="white"/>
<path d="M48.5191 51.2104L50.2996 53.7963L48.1889 56.2529L31.9936 75.0938H28L46.4083 53.6681L48.5191 51.2104Z" fill="white"/>
<path d="M73.3332 27.0007L55.8756 47.3106L53.7648 49.7656L51.9844 47.1797L54.0952 44.7231L65.9207 30.9588L69.3395 27.0007H73.3332Z" fill="white"/>
</svg>
