<svg width="100" height="100" viewBox="0 0 100 100" fill="none" xmlns="http://www.w3.org/2000/svg">
<circle cx="50" cy="50" r="48" fill="#00AC9B" stroke="white" stroke-width="4"/>
<path d="M76.8918 29.9939C76.6947 29.4053 76.4595 29.2504 76.092 29.1032C75.2884 28.8012 73.9272 29.2581 73.9272 29.2581C73.9272 29.2581 25.7372 46.8229 22.9841 48.7668C22.3913 49.185 22.1927 49.4328 22.0942 49.7193C21.6183 51.0979 23.101 51.7097 23.101 51.7097L35.5218 55.8143C35.5218 55.8143 35.9847 55.884 36.1497 55.7756C38.9754 53.9634 64.5787 37.5758 66.0553 37.0259C66.2883 36.9562 66.4609 37.0337 66.4151 37.1963C65.8238 39.3029 43.5862 59.3381 43.5862 59.3381C43.5862 59.3381 43.5014 59.4465 43.448 59.5705L43.4189 59.555L42.2601 72.047C42.2601 72.047 41.7743 75.8728 45.5487 72.047C48.2116 69.3441 50.7882 67.0827 52.0776 65.9907C56.3485 68.9801 60.9448 72.2871 62.9287 74.0141C63.9248 74.8815 64.7582 75.0209 65.4442 74.9977C67.3272 74.928 67.8527 72.8292 67.8527 72.8292C67.8527 72.8292 76.6344 36.995 76.9277 32.1933C76.9567 31.7209 76.9965 31.4266 76.9995 31.1013C77.0049 30.6521 76.9636 30.203 76.8918 29.9939Z" fill="white"/>
</svg>
