<svg width="100" height="100" viewBox="0 0 100 100" fill="none" xmlns="http://www.w3.org/2000/svg">
<circle cx="50" cy="50" r="48" fill="#00AC9B" stroke="white" stroke-width="4"/>
<path d="M25.4844 50.4217L33.3303 46.9891V38.1624L42.1569 43.0661L50.0028 39.6335L33.3303 29.8262L25.4844 33.7491V50.4217Z" fill="white"/>
<path d="M75.9983 33.749L69.1332 30.3164L60.3065 35.2201L66.191 38.1623L25 57.2867V67.0941L31.3748 70.0363L40.6918 66.1133L34.8074 62.6807L75.9983 44.0467V33.749Z" fill="white"/>
<path d="M76.0028 66.1156V50.4238L68.6473 53.366V62.1927L59.3303 57.7794L51.4844 62.1927L68.6473 70.5289L76.0028 66.1156Z" fill="white"/>
<path d="M50.984 71.0181L46.5706 69.0566L38.2344 72.9796L50.984 79.8448L63.7335 72.9796L56.378 69.0566L50.984 71.0181Z" fill="white"/>
<path d="M50.984 21L38.2344 27.3748L46.0803 32.2785L50.984 29.8266L54.9069 32.2785L63.7335 28.3555L50.984 21Z" fill="white"/>
</svg>
